<svg xmlns="http://www.w3.org/2000/svg" viewBox="0 0 512 512">
  <rect width="512" height="512" rx="92" fill="#ffffff"/>
  <path d="M142 102h228c33 0 60 27 60 60v94c0 33-27 60-60 60H142c-33 0-60-27-60-60v-94c0-33 27-60 60-60z" fill="#ffffff"/>
  <path d="M142 102h228c33 0 60 27 60 60v44H82v-44c0-33 27-60 60-60z" fill="#b998cd"/>
  <path d="M112 254v-84c0-17.7 14.3-32 32-32h224c17.7 0 32 14.3 32 32v84c0 17.7-14.3 32-32 32H144c-17.7 0-32-14.3-32-32z" fill="none" stroke="#1f3f7a" stroke-width="12" stroke-linecap="round"/>
  <rect x="170" y="72" width="22" height="84" rx="11" fill="#1f3f7a"/>
  <rect x="320" y="72" width="22" height="84" rx="11" fill="#1f3f7a"/>
  <g fill="#b998cd">
    <rect x="174" y="172" width="28" height="28" rx="6"/>
    <rect x="242" y="172" width="28" height="28" rx="6"/>
    <rect x="310" y="172" width="28" height="28" rx="6"/>
    <rect x="174" y="224" width="28" height="28" rx="6"/>
    <rect x="242" y="224" width="28" height="28" rx="6"/>
    <rect x="310" y="224" width="28" height="28" rx="6"/>
  </g>
  <rect x="362" y="172" width="30" height="30" rx="7" fill="#55c8c5"/>
  <text x="256" y="398" text-anchor="middle"
        font-family="Arial Black, Arial, sans-serif" font-size="126"
        font-weight="900" letter-spacing="-4" fill="#1f3f7a">VAS</text>
</svg>
